<svg width="24" height="24" viewBox="0 0 24 24" fill="none" xmlns="http://www.w3.org/2000/svg">
<g clip-path="url(#clip0_2_22)">
<g filter="url(#filter0_d_2_22)">
<path d="M21.7099 20.2899L17.9999 16.6099C19.44 14.8143 20.1374 12.5352 19.9487 10.2412C19.76 7.94721 18.6996 5.81269 16.9854 4.27655C15.2713 2.74041 13.0337 1.91941 10.7328 1.98237C8.43194 2.04534 6.24263 2.98747 4.61505 4.61505C2.98747 6.24263 2.04534 8.43194 1.98237 10.7328C1.91941 13.0337 2.74041 15.2713 4.27655 16.9854C5.81269 18.6996 7.94721 19.76 10.2412 19.9487C12.5352 20.1374 14.8143 19.44 16.6099 17.9999L20.2899 21.6799C20.3829 21.7736 20.4935 21.848 20.6153 21.8988C20.7372 21.9496 20.8679 21.9757 20.9999 21.9757C21.1319 21.9757 21.2626 21.9496 21.3845 21.8988C21.5063 21.848 21.6169 21.7736 21.7099 21.6799C21.8901 21.4934 21.9909 21.2442 21.9909 20.9849C21.9909 20.7256 21.8901 20.4764 21.7099 20.2899ZM10.9999 17.9999C9.61544 17.9999 8.26206 17.5894 7.11091 16.8202C5.95977 16.051 5.06256 14.9578 4.53275 13.6787C4.00293 12.3996 3.86431 10.9921 4.13441 9.63427C4.4045 8.27641 5.07119 7.02912 6.05016 6.05016C7.02912 5.07119 8.27641 4.4045 9.63427 4.13441C10.9921 3.86431 12.3996 4.00293 13.6787 4.53275C14.9578 5.06256 16.051 5.95977 16.8202 7.11091C17.5894 8.26206 17.9999 9.61544 17.9999 10.9999C17.9999 12.8564 17.2624 14.6369 15.9497 15.9497C14.6369 17.2624 12.8564 17.9999 10.9999 17.9999Z" fill="url(#paint0_linear_2_22)"/>
<path d="M17.6099 16.2971L17.3284 16.6481L17.6478 16.9649L21.3534 20.6405C21.4416 20.7334 21.4909 20.8567 21.4909 20.9849C21.4909 21.1135 21.4413 21.2371 21.3526 21.3301C21.3066 21.3759 21.2521 21.4123 21.1922 21.4372C21.1313 21.4626 21.0659 21.4757 20.9999 21.4757C20.9339 21.4757 20.8685 21.4626 20.8076 21.4372C20.7467 21.4119 20.6914 21.3747 20.6449 21.3278L20.6435 21.3264L16.9635 17.6464L16.6466 17.3295L16.2971 17.6099C14.6012 18.9699 12.4487 19.6286 10.2822 19.4504C8.11564 19.2722 6.0997 18.2707 4.64891 16.6517C3.19811 15.0328 2.42273 12.9196 2.48219 10.7465C2.54165 8.57345 3.43144 6.50576 4.9686 4.9686C6.50576 3.43144 8.57345 2.54165 10.7465 2.48219C12.9196 2.42273 15.0328 3.19811 16.6517 4.64891C18.2707 6.0997 19.2722 8.11564 19.4504 10.2822C19.6286 12.4487 18.9699 14.6012 17.6099 16.2971ZM6.83313 17.2359C8.0665 18.06 9.51654 18.4999 10.9999 18.4999C12.989 18.4999 14.8967 17.7097 16.3032 16.3032C17.7097 14.8967 18.4999 12.989 18.4999 10.9999C18.4999 9.51654 18.06 8.0665 17.2359 6.83313C16.4118 5.59976 15.2405 4.63847 13.87 4.07081C12.4996 3.50315 10.9916 3.35463 9.53673 3.64401C8.08187 3.9334 6.7455 4.64771 5.6966 5.6966C4.64771 6.7455 3.9334 8.08187 3.64401 9.53673C3.35463 10.9916 3.50315 12.4996 4.07081 13.87C4.63847 15.2405 5.59976 16.4118 6.83313 17.2359Z" stroke="black"/>
</g>
</g>
<defs>
<filter id="filter0_d_2_22" x="-2.021" y="1.979" width="28.0119" height="27.9966" filterUnits="userSpaceOnUse" color-interpolation-filters="sRGB">
<feFlood flood-opacity="0" result="BackgroundImageFix"/>
<feColorMatrix in="SourceAlpha" type="matrix" values="0 0 0 0 0 0 0 0 0 0 0 0 0 0 0 0 0 0 127 0" result="hardAlpha"/>
<feOffset dy="4"/>
<feGaussianBlur stdDeviation="2"/>
<feComposite in2="hardAlpha" operator="out"/>
<feColorMatrix type="matrix" values="0 0 0 0 0 0 0 0 0 0 0 0 0 0 0 0 0 0 0.25 0"/>
<feBlend mode="normal" in2="BackgroundImageFix" result="effect1_dropShadow_2_22"/>
<feBlend mode="normal" in="SourceGraphic" in2="effect1_dropShadow_2_22" result="shape"/>
</filter>
<linearGradient id="paint0_linear_2_22" x1="1.979" y1="1.979" x2="25.4288" y2="16.376" gradientUnits="userSpaceOnUse">
<stop stop-color="#F3F9FF"/>
<stop offset="1" stop-color="#F1F0FF"/>
</linearGradient>
<clipPath id="clip0_2_22">
<rect width="24" height="24" fill="white"/>
</clipPath>
</defs>
</svg>
